inDegrees=no
num_controls=7
num_derivatives=13
num_iterations=34
num_multipliers=7
num_parameters=0
num_slacks=7
num_states=26
objective=0.426447
objective_accelerations=0.059239
objective_balance=0.001134
objective_effort=0.015697
objective_height=0.344367
objective_ligament=0.006010
solver_duration=506.169525
status=Solve_Succeeded
success=true
DataType=double
version=3
OpenSimVersion=4.5
endheader
time	/jointset/ground_pelvis/pelvis_tilt/value	/jointset/ground_pelvis/pelvis_tx/value	/jointset/ground_pelvis/pelvis_ty/value	/jointset/hip_l/hip_flexion_l/value	/jointset/hip_l/hip_adduction_l/value	/jointset/hip_l/hip_rotation_l/value	/jointset/back/lumbar_extension/value	/jointset/patellofemoral_l/patellar_flexion_l/value	/jointset/knee_l/knee_flexion_l/value	/jointset/knee_l/knee_adduction_l/value	/jointset/knee_l/knee_rotation_l/value	/jointset/ankle_l/ankle_angle_l/value	/jointset/subtalar_l/subtalar_angle_l/value	/jointset/ground_pelvis/pelvis_tilt/speed	/jointset/ground_pelvis/pelvis_tx/speed	/jointset/ground_pelvis/pelvis_ty/speed	/jointset/hip_l/hip_flexion_l/speed	/jointset/hip_l/hip_adduction_l/speed	/jointset/hip_l/hip_rotation_l/speed	/jointset/back/lumbar_extension/speed	/jointset/patellofemoral_l/patellar_flexion_l/speed	/jointset/knee_l/knee_flexion_l/speed	/jointset/knee_l/knee_adduction_l/speed	/jointset/knee_l/knee_rotation_l/speed	/jointset/ankle_l/ankle_angle_l/speed	/jointset/subtalar_l/subtalar_angle_l/speed	/forceset/tau_hip_flexion_l	/forceset/tau_hip_adduction_l	/forceset/tau_hip_rotation_l	/forceset/tau_knee_flexion_l	/forceset/tau_ankle_angle_l	/forceset/tau_subtalar_angle_l	/forceset/tau_lumbar_extension	lambda_cid13_p0	lambda_cid13_p1	lambda_cid13_p2	lambda_cid13_p3	lambda_cid13_p4	lambda_cid13_p5	lambda_cid14_p0	/jointset/ground_pelvis/pelvis_tilt/accel	/jointset/ground_pelvis/pelvis_tx/accel	/jointset/ground_pelvis/pelvis_ty/accel	/jointset/hip_l/hip_flexion_l/accel	/jointset/hip_l/hip_adduction_l/accel	/jointset/hip_l/hip_rotation_l/accel	/jointset/back/lumbar_extension/accel	/jointset/patellofemoral_l/patellar_flexion_l/accel	/jointset/knee_l/knee_flexion_l/accel	/jointset/knee_l/knee_adduction_l/accel	/jointset/knee_l/knee_rotation_l/accel	/jointset/ankle_l/ankle_angle_l/accel	/jointset/subtalar_l/subtalar_angle_l/accel	gamma_cid13_p0	gamma_cid13_p1	gamma_cid13_p2	gamma_cid13_p3	gamma_cid13_p4	gamma_cid13_p5	gamma_cid14_p0
0	0.04947918277794865	0.1073983675480031	0.9031109745781326	0.1266922784136757	-0.3680673472431648	-0.2212986777419733	-0.2144969558742783	0.2051545070141895	0.2051545070141877	-0.1706130302816875	-0.1557272091565273	0.09024313228550125	0.08111738168871138	0	0	0	0	0	0	0	0	0	0	0	0	0	0.1152436101873827	-0.03242365292908554	-0.008939473383278518	-0.2473078391488695	0.1896786496868957	-0.1082049952200606	-0.04878383050019781	28.84947027581289	43.47093257877577	-8.957764749580766	-18.30115005976174	-438.3920484691475	-28.09276984052375	-26.06545468143486	-3.397971288770197	-1.149048431540623	-0.8777895068604746	11.85934320375198	-0.1104225999160359	3.246991906865028	-3.763683761076706	11.07609366009387	11.07609366009504	2.450072780264424	-1.012189978906271	3.634922985200575	0.9379224759328295	2.214258098651827e-08	6.852870742808475e-07	-1.804994039355548e-07	3.881938574152064e-08	1.037812994841058e-07	3.174903341795034e-07	9.111990727860111e-08
0.01	0.04931546149372628	0.1073429463244467	0.9030683350778714	0.127268087988419	-0.3680720468032584	-0.2211293459907801	-0.2146877830348432	0.2056936121892587	0.2056936121892592	-0.1704930260117173	-0.1557653042831129	0.09042183447123971	0.08116416174840893	-0.03280030574205342	-0.01090941765544167	-0.008510422876169417	0.1146305177374545	-0.0009578181707168128	0.03368440684908385	-0.03772704190375683	0.1072127014392947	0.1072127014392969	0.02380636912657978	-0.007556741839053398	0.03565559991265448	0.009314965449546329	0.1158415991077084	-0.04099263252177614	-0.009284534505517463	-0.2511999405818465	0.1943264888596382	-0.1015486332848688	-0.04856428600461082	30.72519027682222	40.36790412267245	-8.595846075107032	-20.68046107434756	-439.3709273673018	-34.92040373093614	-26.06559583254889	-3.229470244883743	-1.035656610545217	-0.835026345303608	11.18519451694748	-0.09122688951050088	3.401922663678044	-3.711455873448247	10.45259012628506	10.4525901262848	2.316843607606227	-0.6181199327403454	3.518172956786322	0.9220400126877507	8.977915805074944e-10	9.130251393143535e-07	-1.446881683606278e-07	8.489359309218626e-08	-1.374408579430042e-07	3.286594381408431e-07	1.190538013078465e-07
0.02	0.04882205514648422	0.107183677288736	0.9029411198153855	0.1289742604321764	-0.36808687763783	-0.2206286186531402	-0.2152427289081313	0.2072865907267725	0.207286590726776	-0.1701407731247103	-0.1558771075574123	0.09095455154860833	0.08130284274924665	-0.06593701260247437	-0.02076956243086033	-0.01691515244492947	0.2260725738031393	-0.002026254895860955	0.06627911728808109	-0.07282374254442449	0.2107746724960937	0.2107746724960948	0.04644972340321574	-0.01474162953152041	0.07080297832484167	0.01838018822797935	0.1164395880279747	-0.04956161211449428	-0.009629595627436247	-0.2550920420150148	0.1989743280323032	-0.09489227134973408	-0.04834474150898233	32.64972341154591	37.27338118691639	-8.254764641274484	-23.11477391365571	-439.4584097467946	-41.55164691041077	-26.06576638518982	-3.465251512443556	-0.9391938555361125	-0.856650845378597	11.22165086939803	-0.1325463108015111	3.029052624847703	-3.237615508458798	10.34594758359475	10.34594758359525	2.217469810275661	-0.9378191495890155	3.533278685107021	0.8879739417101299	-2.034699782550328e-08	1.14076320434786e-06	-1.088769327857007e-07	1.309678004428519e-07	-3.786630153701143e-07	3.398285421021828e-07	1.469876953370919e-07
0.03	0.04799745242095171	0.1069291684341068	0.9027301657201029	0.1317804303780995	-0.3681125008900737	-0.2198086772654261	-0.2161376881060689	0.2098989024815283	0.2098989024815325	-0.1695667022542779	-0.1560605161713018	0.09183480882030232	0.08153103778158828	-0.09880754991351662	-0.03014389579279318	-0.02527193632463108	0.3346950925500199	-0.003075091011774334	0.09760603538975915	-0.1059976810656995	0.3111905242730397	0.3111905242730276	0.06825200387549943	-0.02181514560345679	0.1050037266321027	0.02721613211730087	0.1120988476034361	-0.04474367353581472	-0.008521762113177444	-0.2490764376272231	0.190405218682923	-0.09586245773794962	-0.04524154287583652	29.82665566089273	37.97070635350426	-8.116556059365951	-20.91755717265038	-439.2866400419417	-39.25066154496194	-26.06560553879105	-3.171549503865562	-0.9382797916945425	-0.8247093234448335	10.61260463722914	-0.08770883580967594	3.16909383487694	-3.331720627175089	9.814801337070746	9.814801337068365	2.144922161498361	-0.5734196932222861	3.326793566467817	0.8748349561329815	-2.440655780554302e-08	1.327892711004215e-06	-1.256079078529524e-07	1.55358006366616e-07	-5.034495322081247e-07	3.819810014112826e-07	1.749192485468475e-07
0.04	0.04684942538961591	0.1065805709028235	0.9024357403531867	0.1356588359634676	-0.3681479438182466	-0.2186785502102864	-0.2173592742098638	0.2135004522265205	0.2135004522265249	-0.1687779455799724	-0.1563109203173544	0.09304973770765383	0.08184627832154134	-0.13062187376177	-0.03958729776167755	-0.03360940677165876	0.4405197016927349	-0.003990190080623869	0.1283162507734019	-0.1381491237154926	0.4086222705430328	0.408622270543002	0.08938688417953028	-0.02814073596444541	0.1377373014566501	0.03578928975021491	0.1077581071789195	-0.03992573495711824	-0.007413928598931982	-0.2430608332394217	0.1818361093335495	-0.09683264412614456	-0.04213834424267682	27.04794002100453	38.67854859615053	-8.000909688821881	-18.76726668120734	-438.2966300115843	-36.75984646161054	-26.06421253592548	-3.254008819885633	-0.9530075769264965	-0.8527881588438073	10.66206894856489	-0.1057989013887501	2.905712081240652	-3.033116334162349	9.749126482204209	9.749126482203611	2.083989776625095	-0.7882340073994798	3.239843988564204	0.8354166904286011	-2.811178315824316e-08	1.514184927797124e-06	-1.434222274695273e-07	1.793011194774543e-07	-6.258353141886278e-07	4.247722927894083e-07	2.028507534922837e-07
0.05	0.04538756315699512	0.106137735189	0.9020577335398789	0.1405821981889208	-0.3681919838498309	-0.2172463295902028	-0.2188955633182271	0.2180622601730163	0.2180622601730257	-0.1677813012054626	-0.1566228024431026	0.09458550712206272	0.08224611757805082	-0.1616069630564377	-0.04893480871422067	-0.04200840941086947	0.543640424504808	-0.004803996659596419	0.1579678070266813	-0.1688359208576048	0.5032358635652575	0.5032358635652722	0.1097950857279057	-0.03414584591953046	0.1692315707306767	0.04414686497386328	0.1037581402118626	-0.03799593425844421	-0.006412196926087083	-0.2391090223921791	0.1758561274812233	-0.0956013524939848	-0.03915568414474362	25.23524101917098	38.34156667663337	-7.810547085262334	-17.71549731082774	-437.5454996566281	-36.55615663853258	-26.06056413938517	-2.999203723708392	-0.9188313575882094	-0.836050500626901	10.06022855669065	-0.067300710201744	2.970936611346694	-3.045544839132316	9.241916637993876	9.24191663800095	1.9974425232433	-0.4932309362557845	3.076512045247763	0.8309519968643608	-3.003358357343469e-08	1.557653819128723e-06	-1.788051423969148e-07	1.902530170137433e-07	-6.953855120708914e-07	4.629714148623592e-07	2.144061641120872e-07
0.06	0.04362016108353351	0.1056027826650169	0.9015952178633446	0.1465213985643149	-0.3682437877820158	-0.2155223815647847	-0.2207305370849938	0.2235550922348733	0.2235550922348737	-0.1665849333795911	-0.1569920519577633	0.09643067795889956	0.0827285373985033	-0.1917298419291081	-0.05801065979359221	-0.05051117941695844	0.6436873316833681	-0.005542970200571555	0.1866617318389638	-0.1978860553955729	0.5948270936179697	0.5948270936180264	0.1293315744482616	-0.039614213742323	0.1996175859417374	0.05230540253876714	0.09975817324463473	-0.03606613355977478	-0.005410465253131178	-0.2351572115450814	0.1698761456288473	-0.09437006086184636	-0.03617302404689818	23.46246672466774	38.01318864295445	-7.639370521440067	-16.70214847178001	-436.060290567179	-36.17920124258496	-26.0533716982419	-3.081566735486027	-0.8986756022922485	-0.8735416322194578	10.0473058218623	-0.09083229378927694	2.714185793041281	-2.705783813333463	9.144653888301747	9.144653888300429	1.909647211021217	-0.6808855809409927	3.018193175970964	0.7956091586796701	-3.188029241231007e-08	1.595109096756687e-06	-2.149277876531786e-07	2.006579159995248e-07	-7.627110537805975e-07	5.009771824382501e-07	2.252720549708114e-07
0.07000000000000001	0.04155475550364385	0.1049784003050317	0.9010468605472048	0.1534476331340505	-0.3683026171306477	-0.2135174192330178	-0.2228473947846623	0.229950079736078	0.2299500797360797	-0.1651973492720964	-0.1574147405537594	0.09857454689942777	0.0832916903952729	-0.2212485527077409	-0.06682044973306869	-0.05919584864113586	0.7411106687706071	-0.006209813233427772	0.2141985415348754	-0.2252383065817266	0.6836919330037188	0.6836919330037455	0.1480281377821994	-0.0448053242571139	0.2289770083847444	0.06029631173303427	0.09607063012362693	-0.03423437274143722	-0.004441318879046325	-0.232335870569036	0.1652083200760704	-0.09308515249478462	-0.03347213142046349	22.1019147120003	37.64330995910147	-7.523213997558083	-15.99053858298053	-434.799373554937	-35.93350897764073	-26.04132466753382	-2.871596822067791	-0.8652860617004072	-0.871417650303127	9.522515298154046	-0.05284390103418979	2.75368306835203	-2.712869077702391	8.685582734726825	8.685582734722951	1.826341226280298	-0.4205666600296176	2.867984638400652	0.7962745864791717	-3.047323583172084e-08	1.375541276798901e-06	-2.649749707256099e-07	1.847617241957587e-07	-7.569163150778828e-07	4.96210787781273e-07	2.070597020888205e-07
0.08	0.03919724810136028	0.1042672889712666	0.9004105589222655	0.1613346346038647	-0.3683677616282141	-0.2112410379021966	-0.2252303596574807	0.2372193523853459	0.2372193523853514	-0.1636274634649253	-0.1578858088295573	0.1010066436363734	0.08393384104132116	-0.2501502064069856	-0.07535645454958803	-0.06810004117688893	0.8358407116978132	-0.006805999986296516	0.2409455316502266	-0.2511074900257135	0.7696841232300806	0.7696841232300766	0.1657919143841461	-0.0492901497031627	0.2572631452251548	0.06810493239445801	0.09238308700274127	-0.03240261192310095	-0.003472172504955686	-0.2295145295929461	0.1605404945233043	-0.091800244127721	-0.03077123879393171	20.77666314866905	37.28161776245065	-7.424774747063601	-15.30682640270389	-432.8846599297788	-35.52803714989531	-26.02282176121683	-2.958155319608269	-0.8439185777008882	-0.917446294534588	9.508646989855718	-0.07670103779178918	2.556221876929234	-2.409170264900041	8.57012405642431	8.57012405642282	1.723089864622989	-0.5396285671925853	2.803536055451565	0.759151452110961	-2.885625890148873e-08	1.139391321513002e-06	-3.159205110765034e-07	1.67168687824925e-07	-7.464041389292055e-07	4.886848987866915e-07	1.869713334816222e-07
0.09	0.03655391961213014	0.1034720122041863	0.8996840030569008	0.1701559021865697	-0.3684383146727466	-0.2087036580259229	-0.2278644343626473	0.24533501758752	0.2453350175875205	-0.1618839372044686	-0.1584007125822177	0.1037162675152328	0.08465344878150337	-0.2783366689938935	-0.08366785773307156	-0.07724839970875853	0.9278852210729418	-0.007271644349213944	0.2663851450756355	-0.275510436592764	0.8529385564843924	0.8529385564844172	0.1827812097595617	-0.05355731277943977	0.2844565611483619	0.07580376509750777	0.08767298089755465	-0.02985208063011315	-0.00225344714071539	-0.2253865062959045	0.1536559116878491	-0.09014281485177303	-0.02741503942948639	18.73672874274766	36.82614892934889	-7.246131936188752	-14.0543779341816	-431.2881695390936	-35.15283502585276	-25.99631210706743	-2.722048259545368	-0.8200618694206451	-0.9192699153388739	8.973222709185459	-0.026653065629316	2.51611982122972	-2.42630469026317	8.126511782510283	8.126511782515507	1.66718319467569	-0.3503422061519699	2.646514363383797	0.7731846239518273	-2.271018933964303e-08	9.768361956595208e-07	-3.976226854948496e-07	1.522748549733997e-07	-7.074564353700589e-07	5.260675843980708e-07	1.773074711640618e-07
